<?xml version="1.0" encoding="UTF-8"?>
<svg id="Calque_1" xmlns="http://www.w3.org/2000/svg" viewBox="0 0 1080 806.68">
  <g>
    <path d="M659.81,528.02c-.87-.36-4.35-.08-13.54,1.32-3.6.55-6.72,1.02-9.09,1.54,1.58-15.46,3.62-33.28,6.09-50.92.2-1.34.13-1.82.11-1.98-.13-.88-3.91-2.02-8.13-1.79-2.42,17.47-4.64,36.22-7.04,59.25-.09,1-.08,1.65-.03,1.97.13.88,3.03,2.16,5.6,2.42,1.88-.53,7.62-1.57,12.9-2.37,3.04-.46,5.77-.8,13.74-1.68.23-1.18.42-4.24.12-6.24-.13-.88-.29-1.35-.72-1.53Z" style="fill: #0068ff;"/>
    <path d="M696.13,512.93c-1.68,4.59-5.17,9.05-8.74,11.39-.11-2.85.65-5.42,1.39-8.07l1.7-6.07c.17-.52.19-.93.15-1.17-.07-.48-.58-1.14-1.5-1.82l-.1-.15c1.23-5.34,1.76-10.5,1.15-14.49-.34-2.24-1.02-4.02-3.67-6.89-2.54-2.72-3.94-3.33-5.22-3.13-7.28,1.11-22.18,29.55-20.19,42.67.52,3.44,2.18,5.72,5.63,7.41,2.11.99,4.41,1.54,6.09,1.28,2.56-.39,5.21-2.84,7.69-6.49,1.07,1.64,2.54,2.72,3.87,3.42,1.58.74,2.86,1.04,3.9.88,4-.61,15.07-12.84,12.66-16.32-.52-.74-2.21-1.63-4.79-2.46ZM668.92,528.19c-1.66-11.45,6.7-30.23,14.56-38.79.14.39.2.79.26,1.19,1.59,10.48-5.93,35.84-14.82,37.6Z" style="fill: #0068ff;"/>
    <path d="M860.21,453.22l.67-4.77c.24-1.67.29-2.42.25-2.66-.18-1.2-3.8-2.37-7.28-2.66l-.67,4.77c-.24,1.67-.29,2.42-.25,2.66.18,1.2,3.8,2.37,7.28,2.66Z" style="fill: #0068ff;"/>
    <path d="M960.85,477.45c-1.44,2.35-6.32,6.36-11.59,7.16-1.6.24-2.92.2-3.95-.14,10.68-9.4,20.28-22.72,18.61-33.67-.32-2.08-1-3.86-3.84-6.95-2.34-2.51-3.59-3.14-5.03-2.92-7.44,1.13-22.43,26.32-20.16,41.27l.15.96c-2.19,1.96-4.4,3.66-6.39,5.05.15-1.54.44-3.26.7-4.76l3.47-21.88c.53-3.52.67-3.7.09-4.27-.86-.85-3.42-2.02-5.3-2.06-3.22,11.13-10.23,25.86-16.15,33.22,1.59-11.62,3.42-23.27,5.49-34.95.32-1.68.3-2.34.25-2.66-.19-1.28-5.06-2.59-6.51-2.45-1.48,6.44-13.15,32.51-20.88,43.22,1.53-11.74,2.94-23.47,4.18-35.2.16-1.66.23-2.25.18-2.57-.19-1.28-4.88-2.53-6.51-2.45l-.53,4.58-.6-.73c-2.54-2.72-3.94-3.33-5.22-3.13-6.48.98-18.93,23.5-20.28,37.77-1.35,2.41-2.68,4.42-4.06,6.1-.58.69-1.17,1.33-1.75,1.94l4.07-35.68c.16-1.09.2-1.91.15-2.23-.28-1.84-5.68-2.9-7.13-2.76-1.4,6.09-11.91,29.71-19.58,41.32-1.63-10.78-.97-16.1,1.89-23.66.26-.45.28-.86.24-1.1,0-.49-.34-1.17-1.28-1.93l-3.05-2.32c1.64-4.26,3.02-8.15,4.07-11.42.57-1.64-3.59-3.71-6.17-3.48-9.89,30-18.2,44.51-23.86,50.69.15-1.03.33-2.08.49-3.04l3.47-21.88c.53-3.52.67-3.7.09-4.27-.87-.85-3.42-2.02-5.3-2.06-3.22,11.13-10.23,25.86-16.15,33.22,1.59-11.62,3.42-23.27,5.49-34.95.32-1.68.3-2.34.25-2.66-.19-1.28-5.06-2.59-6.51-2.45-1.44,6.27-12.52,31.1-20.24,42.3.09-.47.18-.94.27-1.39l3.02-15.1c.7-3.46.5-3.68-.07-4.24-.87-.85-3.18-2.05-5.22-2.07-3.12,3.17-8.12,9.58-12.58,16.31l3.03-15.6c.62-3.45.5-3.68-.07-4.24-.87-.85-3.27-2.12-5.16-2.16-2.98,2.99-8.4,9.87-13.16,17.87.95-6.12,1.97-12.33,3.09-18.47.32-1.68.3-2.34.25-2.66-.19-1.28-5.06-2.59-6.51-2.45-4.98,5.99-9.72,12.52-14.1,18.67-1.29,1.75-1.48,2.11-1.41,2.59.19,1.28,2.69,4.25,4.28,5,2.68-3.93,5.77-8.32,8.95-12.73-1.68,10.48-3.29,20.87-4.66,31.23-.24,1.67-.3,2.34-.25,2.66.19,1.28,4.97,2.52,6.59,2.44,3.02-11.34,7.18-20.07,13.19-28.43l-3.86,20.88c-.3,1.76-.29,2.42-.24,2.74.19,1.28,4.96,2.52,6.83,2.4,1.45-4.97,5.37-12.03,12.08-20.65l-2.36,13.04c-.12.84-.18,1.5-.13,1.82.1.64.19.71,3.11,2.15h0s0,0,0,0c2.03,1,2.94,1.03,3.58.93,4.64-.7,11.53-11.9,16.95-23.6-.77,5.19-1.54,10.3-2.23,15.48-.12.84-.18,1.5-.14,1.74.11.72.2.79,3.12,2.23,1.59.74,2.86,1.04,3.9.88,3.44-.52,7.54-5.81,11.24-12.75l-.58,3.69c-.17,1.01-.17,2.64-.1,3.12.12.81.92,1.4,2.12,2.06.2.11.4.22.61.32.03.02.06.03.09.05h0s0,0,0,0c2.03,1,3.18.99,3.58.93,3.36-.51,7.22-4.7,11.14-10.69,6.8,4.32,12.2,6.07,14.87,6.46.6.14,1.01.12,1.35.07.01,0,.03,0,.04,0,.01,0,.03,0,.04,0,.02,0,.05-.02.07-.02,5.2-1.03,13.13-14.78,18.62-27.77l-2.17,18.58c-.13,1.33-.19,1.99-.13,2.39.11.72,1.48,1.66,3.06,2.4,0,0,0,0,0,0,1.32.62,2.61,1.07,3.89.88,2.56-.39,5-2.07,8.87-7.32.91,1.17,2.22,2.2,3.89,3.01,2.11.99,4.41,1.54,6.09,1.28,3.12-.47,6.5-4.1,9.4-9.2-1.02,7.27-2.11,14.64-3.2,22.01-.24,1.67-.3,2.34-.25,2.66.19,1.28,5.46,2.53,6.91,2.39.98-6.7,1.93-13.4,2.84-20.1.15,0,.28-.01.41-.03,4.64-.7,11.53-11.9,16.95-23.6-.77,5.19-1.54,10.3-2.23,15.48-.12.84-.18,1.5-.14,1.74.11.72.2.79,3.12,2.23,1.58.74,2.86,1.04,3.9.88,3.44-.52,7.55-5.81,11.24-12.75l-.58,3.69c-.17,1.01-.17,2.64-.1,3.12.15.96,1.23,1.61,2.82,2.43h0s0,0,0,0c1.41.69,2.94,1.03,4.62.77,2.48-.38,5.24-2.11,9.95-5.6l1.38,1.02c2.52,1.5,5.78,1.98,9.46,1.43,7.2-1.09,15.45-6.03,14.8-10.27-.25-1.68-2.01-3.54-3.28-4.33ZM824.92,483.21c-1.09,6.3-.49,11.86,1.03,18.09-3.04-1.17-5.79-2.56-7.96-3.95,2.44-4.38,4.73-9.23,6.93-14.14ZM868.94,497.8c-1.66-11.45,6.7-30.23,14.56-38.79.14.39.2.79.26,1.19,1.59,10.48-5.93,35.84-14.83,37.6ZM942.31,478.22c.53-7.85,7.91-22.8,14.91-30.58.08.56.26,1.19.35,1.75,1.41,9.28-6.2,20.58-15.26,28.83Z" style="fill: #0068ff;"/>
    <path d="M977.62,480.63c-.24-1.6-4.47-2.51-6.98-2.87-1.59,12.19-2.69,15.71-2.54,16.67.22,1.44,4.06,2.49,6.74,2.9,1.98-7.99,2.98-15.43,2.78-16.7Z" style="fill: #0068ff;"/>
  </g>
  <g>
    <path d="M980.04,547.78c-1.44,2.35-6.32,6.36-11.59,7.16-1.6.24-2.92.2-3.95-.14,10.68-9.4,20.28-22.72,18.61-33.67-.32-2.08-1-3.86-3.84-6.95-2.34-2.51-3.59-3.14-5.03-2.92-7.44,1.13-22.43,26.32-20.16,41.27l.15.96c-2.43,2.17-4.87,4.02-7.02,5.49-3.16-2.17-5.46-4.48-6.95-6.97,9.72-11.95,21.12-34.38,19.4-45.74-.47-3.12-1.79-5.29-3.82-7.36-1.17-1.21-2.19-1.47-3.39-1.29-11.12,1.69-24.7,31.82-22.04,49.33.21,1.36.49,2.71.94,4.03-2.15,3.11-4.53,6.25-6.87,8.65-1.15,1.22-2.32,2.25-3.57,3.2-.61-.25-1.19-.71-1.69-1.18,5.2-9.38,8.35-23.12,7.04-31.75-.34-2.24-1.02-4.02-3.67-6.89-2.54-2.72-3.94-3.33-5.22-3.13-3.44.52-8.35,6.42-12.66,14.69l2.87-19.91c.24-1.67.3-2.34.25-2.66-.19-1.28-5.46-2.53-6.91-2.39-1.48,10.21-2.86,20.48-4.18,30.66-4.03,8.79-9.1,18.64-13.24,24.63.09-.44.17-.88.26-1.3l3.02-15.1c.7-3.46.51-3.68-.07-4.24-.87-.85-3.18-2.05-5.22-2.07-3.12,3.17-8.12,9.58-12.58,16.31l3.03-15.6c.62-3.45.5-3.68-.07-4.24-.86-.85-3.27-2.12-5.16-2.16-2.98,2.99-8.4,9.87-13.16,17.87.95-6.12,1.97-12.33,3.09-18.47.32-1.69.3-2.34.25-2.66-.19-1.28-5.06-2.59-6.51-2.45h0s0,0,0,0c-3.16,14.23-12.32,44.42-25.83,46.47-1.68.25-3.1.06-4.17-.51,10.76-9.41,20.44-22.74,18.76-33.78-.32-2.08-1-3.86-3.84-6.95-2.34-2.51-3.59-3.14-5.03-2.92-7.44,1.13-22.43,26.32-20.16,41.27l.15.96c-1.64,1.47-3.29,2.79-4.85,3.95-2.26-13.02-1.77-18.61,1.36-26.9.26-.45.28-.86.24-1.1,0-.49-.34-1.18-1.28-1.93l-3.05-2.32c1.64-4.26,3.02-8.15,4.07-11.42.57-1.64-3.59-3.71-6.17-3.48-10.03,30.42-18.43,44.91-24.09,50.94.24-1.2.46-2.3.64-3.28l4.35-22.02c.7-3.46.66-3.7.09-4.27-.86-.85-3.42-2.02-5.3-2.06-2.9,2.98-8.27,9.68-12.97,17.52.98-6.45,2.05-12.91,3.19-19.39.32-1.68.3-2.34.25-2.66-.19-1.28-5.06-2.59-6.51-2.45h0c-3.16,14.23-12.32,44.42-25.83,46.47-1.68.26-3.1.06-4.17-.51,10.76-9.41,20.44-22.74,18.76-33.78-.32-2.08-1-3.86-3.84-6.95-2.34-2.51-3.59-3.14-5.03-2.92-7.44,1.13-22.43,26.32-20.16,41.27.61,4,2.42,6.75,4.96,8.41,2.52,1.5,5.78,1.98,9.46,1.43,9.37-1.42,15.6-9.28,20.31-18.86-.49,3.4-.97,6.79-1.42,10.18-.24,1.67-.3,2.34-.25,2.66.19,1.28,4.96,2.52,6.59,2.44,3.25-11.46,6.96-18.81,12.8-27.23l-3.64,19.7c-.12.84-.18,1.5-.13,1.82.1.64.19.71,3.11,2.15,0,0,.02,0,.03.01,2.02.99,3.15.98,3.55.92,3.36-.51,7.22-4.7,11.14-10.69,8.42,5.35,14.69,6.77,16.29,6.53.08-.01.16-.05.24-.08.24-.01.47-.03.72-.07,2.48-.38,5.24-2.11,9.95-5.6l1.38,1.02c2.52,1.5,5.78,1.98,9.46,1.43,9.37-1.42,15.6-9.29,20.31-18.86-.49,3.4-.97,6.79-1.42,10.19-.24,1.67-.3,2.34-.25,2.66.19,1.28,4.96,2.52,6.59,2.44,3.02-11.34,7.18-20.07,13.19-28.43l-3.86,20.88c-.3,1.76-.29,2.42-.24,2.74.19,1.28,4.96,2.52,6.83,2.4,1.46-4.97,5.37-12.03,12.08-20.65l-2.36,13.04c-.12.84-.18,1.5-.13,1.82.1.64.19.71,3.11,2.15h0s0,0,0,0c2.03,1,2.94,1.03,3.58.93,3.36-.51,7.93-6.52,12.23-14.29l-.7,6.73c-.16,1.66-.22,2.32-.17,2.64.19,1.28,4.88,2.53,6.51,2.45.14-1.25.28-2.5.49-3.76,2.6,2.06,5.96,2.61,8.28,2.26,2.4-.36,4.76-2.03,6.93-4.49.41.34.88.7,1.35,1.02.24.18.5.35.81.5.02,0,.03.02.05.03,1.58.74,2.86,1.04,3.9.88v-.04c.13,0,.27,0,.4-.02,3.12-.47,8.03-5.31,12.8-11.6,2.17,2.94,4.98,5.3,8.25,6.93h0s0,0,0,0c1.41.69,2.94,1.03,4.62.77,2.48-.38,5.24-2.11,9.95-5.6l1.38,1.02c2.52,1.5,5.78,1.98,9.46,1.43,7.2-1.09,15.45-6.03,14.8-10.27-.26-1.68-2.01-3.54-3.28-4.33ZM727.4,584.11c.53-7.85,7.91-22.8,14.91-30.58.08.56.26,1.19.35,1.75,1.41,9.28-6.2,20.58-15.26,28.83ZM797.07,560.68c-1.09,6.3-.49,11.86,1.03,18.09-3.04-1.17-5.79-2.56-7.96-3.95,2.44-4.38,4.73-9.23,6.93-14.14ZM817.54,570.42c.53-7.85,7.91-22.8,14.91-30.58.08.56.26,1.19.35,1.75,1.41,9.28-6.2,20.58-15.26,28.83ZM906.86,564.3c-1.28.19-3.26-.49-5.02-2.35,3.38-13.85,10.15-27.97,17.72-35.26.14.39.2.79.27,1.27,1.66,10.96-6.81,35.4-12.97,36.34ZM954.25,503.01l.02.16c.1,10.87-8.09,28.07-16.71,40.26-.96-12.21,6.88-30.67,16.69-40.42ZM961.5,548.55c.53-7.85,7.91-22.8,14.91-30.58.09.56.26,1.19.35,1.75,1.41,9.28-6.2,20.58-15.26,28.83Z" style="fill: #0068ff;"/>
    <path d="M1017.26,494.42c-.13-.88-3.85-1.63-8.23-1.37-2.61,13.49-4.36,27.83-5.76,46.12-.13,1.33-.05,1.81-.03,1.97.13.88,3.45,1.69,7.51,1.48,1.5-16.51,3.66-31.4,6.4-46.22.19-.93.18-1.5.11-1.98Z" style="fill: #0068ff;"/>
    <path d="M1002.29,547.18c-.23,3.88-.12,6.73.08,8.09.39,2.56,5.56,2.67,8.84,2.18.23-3.88.11-6.81-.1-8.17-.39-2.56-5.55-2.59-8.83-2.1Z" style="fill: #0068ff;"/>
  </g>
  <g>
    <path d="M973.48,146.7l6.84,85.26-18.98,2.88-18.44-83.5,30.58-4.65Z" style="fill: #0068ff;"/>
    <g>
      <path d="M947.76,344.94c-2.35,22.08-5.17,22.53-8.33,22.01-2.66-.44-3.89-6.49-3.94-16.94,0,0,.36-74.79.43-128.74-.19-15.43-1.3-27.49-1.99-32.06-2.46-16.17-10.55-22.13-22.86-20.26-12.3,1.87-19.72,9.83-29.08,26.35-2.59-14.71-10.64-20.32-22.59-18.5-10.9,1.66-17.83,8.1-25.66,20.44.2-5.78.16-10.81.16-15.49l-33.39,5.07c.36,51.46.24,137.02-.37,189.79-.47,7.55-1.79,11.9-4.02,12.24-3.07.47-5.82.02-7.87-20.25-.03-.32-.08-.81-.12-1.21-.04-.43-.06-.87-.06-1.3.06-37.24,1.52-66.49.76-102.34-.27-13.62-2.19-26.28-3.21-32.95-4.54-29.88-19.47-40.55-37.74-37.78-23.9,3.63-37.27,26.88-45.79,115.19l31.91,4.14c5.48-68.07,10.16-84.61,15.43-85.41,2.46-.37,4.24,1.87,4.99,6.79.85,5.62,1.4,16.33,1.5,33.57.11,12.57-.07,25.54.2,39.16-38.61,34.63-55.35,68.82-50.7,99.4,2.67,17.57,11.3,27.05,23.6,25.18,9.96-1.51,23.41-4.47,33.64-33.39,7.88,19.46,20.33,27.4,35.97,25.02,19.81-3.01,34.52-15.42,34.81-61.08-.28-49.22-.34-83.36.2-141.34,3.93-4.91,7.07-7.91,10.93-8.49,3.87-.59,5.59,1.31,6.23,5.53.21,1.41.45,5.33.49,10.35-.32,54.7-.15,152.85-.83,183.87l33.04-5.02c.7-28.51.67-123.44.74-177.39-.1-5.38-.14-10.41-.43-14.68,4.42-6.43,8.21-9.88,12.43-10.52,3.87-.59,5.59,1.31,6.23,5.53.21,1.41.45,5.33.49,10.35-.31,52.4-.25,119.48-.25,119.48-.27,43.03,14.01,54.51,33.78,57.77,21.4,3.53,37.04-8.68,43.4-47.27l-32.16-4.85ZM743.87,396.08c-3.52.53-5.65-1.66-6.39-6.58-1.87-12.3,4.55-31.61,18.15-50.94,0,12.35-1.25,22.32.25,32.63h0s0,.03,0,.05c.03.18.06.36.09.54.62,3.99,1.35,7.72,2.17,11.23-3.43,10.1-10.54,12.51-14.27,13.08Z" style="fill: #0068ff;"/>
      <polygon points="456.51 225.23 457.14 190.57 281.82 217.46 281.84 251.64 456.51 225.23" style="fill: #0068ff;"/>
      <path d="M197.44,265.94c14.41-2.19,19.7-12.34,17.99-23.59-1.33-8.79-7.27-14.72-18.17-13.06-14.76,2.24-20.59,13.56-18.94,24.45,1.39,9.14,7.51,13.96,19.11,12.2Z" style="fill: #0068ff;"/>
      <path d="M170.63,514.7c29.32-4.22,41.85-27.85,42.07-62.84,0,0,0,0-.01,0-.45-62.11-.06-126.94.41-175.9l-33.39,5.07c.35,50.96.29,128.82-.31,181.42-1.82,22.28-36.05,24.46-41.02,24.66,6.22-47.84,21.71-149.26,30.8-204.48l-70.26,10.67.02,30.92,32.3-4.9c-8.13,53.01-23.43,153.5-32.31,206.27,7.73-1.17,16.17-2.46,24.25-3.68,16.87-2.56,33.69-5.48,47.45-7.21h0Z" style="fill: #0068ff;"/>
      <path d="M282.18,264.4c-7.28,18.37-13.88,38.79-19.95,58.05.19-46.06.22-76.05.59-101.99l-34.44,5.23c.59,61.68.22,256.17-.42,334.59-4.78-3.72-13.64-9-27.16-5.48-31.94,8.32-46.12,34.59-42.17,64.17.03.2.06.4.08.59,3.66,24.36,24.97,38.63,54.82,30.24,38.06-10.69,46.89-56.11,48.04-65.09.88-6.86.65-22.03.64-23.07,0-.97-.29-10.27-.32-11.42-.03-44.4.14-131.55.1-170.2.24-.76.79-1.92,1.38-2.73,8.59,44.72,19.27,103.15,22.75,121.32l33.53-6.53c-10.75-44.75-25.32-116.97-34.78-162.64,12.24-25.95,26.13-52.87,35.78-69.8l-38.47,4.77Z" style="fill: #0068ff;"/>
      <path d="M481.61,234.19c-10.9,1.66-16.52,8.15-24.6,21.25-.2-6.08.05-11.51.06-16.19l-34.35,4.97c.46,57.56.61,203.17-.04,275.06-4.66-3.72-13.29-8.67-27.4-5-32.1,8.36-46.35,34.77-42.38,64.5.03.2.06.4.08.59,3.68,24.49,25.09,38.82,55.1,30.39,38.25-10.74,47.13-56.4,48.28-65.42.88-6.9.65-22.14.65-23.19,0-1.04-.33-11.6-.33-11.6h-.05c-.04-13.52.03-29.81-.04-41.55,44.67-37.35,59.04-140.11,49.8-200.91-4.38-28.82-12.48-34.78-24.78-32.91ZM456.55,425.23c-.15-50.68.12-105.74.31-147.12,3.87-5.26,6.06-8.36,9.92-8.95,3.87-.59,5.59,1.31,7.46,13.61,4.54,29.88,3.69,98.57-17.69,142.45Z" style="fill: #0068ff;"/>
      <path d="M597.66,292.79c-.27-13.62-2.19-26.28-3.21-32.95-4.54-29.88-19.47-40.55-37.74-37.78-23.9,3.63-37.27,26.88-45.79,115.19l31.91,4.14c5.48-68.07,10.16-84.61,15.43-85.41,2.46-.37,4.24,1.87,4.99,6.79.85,5.62,1.4,16.33,1.5,33.57.11,12.57-.07,25.54.2,39.16-38.61,34.63-55.35,68.82-50.7,99.4,2.67,17.57,11.3,27.05,23.6,25.18,10.9-1.66,17.83-8.1,25.61-20.79.15,5.73-.16,10.81-.11,15.84l33.39-5.07c-.51-45.95,1.79-116.06.92-157.28ZM563.91,416.22c-3.87,5.26-7.37,8.31-11.23,8.9-3.52.53-5.65-1.66-6.39-6.58-1.87-12.3,4.55-31.61,18.15-50.94,0,16.54-.31,33.49-.53,48.62Z" style="fill: #0068ff;"/>
      <path d="M374.73,467.98c.15,5.73-.16,10.81-.11,15.84l33.39-5.07c-.51-45.95,1.79-116.06.92-157.28-.27-13.62-2.19-26.28-3.21-32.95-4.54-29.88-19.47-40.55-37.74-37.78-23.9,3.63-37.27,26.88-45.79,115.19l31.91,4.14c5.48-68.07,10.16-84.61,15.43-85.41,2.46-.37,4.24,1.87,4.99,6.79.85,5.62,1.4,16.33,1.5,33.57.11,12.57-.07,25.54.2,39.16-38.61,34.63-55.35,68.82-50.7,99.4,2.67,17.57,11.3,27.05,23.6,25.18,10.9-1.66,17.83-8.1,25.61-20.79ZM357.56,447.21c-1.87-12.3,4.55-31.61,18.15-50.94,0,16.54-.31,33.49-.53,48.62-3.87,5.26-7.37,8.31-11.23,8.9-3.52.53-5.65-1.66-6.39-6.58Z" style="fill: #0068ff;"/>
      <path d="M670.34,205.52c-10.9,1.66-17.83,8.1-25.66,20.44.2-5.78.16-10.81.17-15.49l-33.39,5.07c.36,52.08-.01,179.79-.65,232.39l33.39-5.07c-.29-49.22-.15-135.9.39-193.87,3.93-4.91,7.07-7.91,10.93-8.49,3.87-.59,5.59,1.31,6.23,5.53.21,1.41.45,5.32.49,10.35-.32,54.7-.15,152.85-.83,183.87l33.04-5.02c.7-28.51.67-123.44.74-177.39-.19-15.43-1.3-27.49-1.99-32.06-2.46-16.17-10.55-22.13-22.86-20.26Z" style="fill: #0068ff;"/>
    </g>
  </g>
</svg>