<?xml version="1.0" encoding="UTF-8" standalone="no" ?>
<!DOCTYPE svg PUBLIC "-//W3C//DTD SVG 1.1//EN" "http://www.w3.org/Graphics/SVG/1.1/DTD/svg11.dtd">
<svg xmlns="http://www.w3.org/2000/svg" xmlns:xlink="http://www.w3.org/1999/xlink" version="1.1" width="1280" height="1024" viewBox="0 0 1280 1024" xml:space="preserve">
<desc>Created with Fabric.js 4.4.0</desc>
<defs>
</defs>
<g transform="matrix(1 0 0 1 640 512)" id="background-logo"  >
<rect style="stroke: none; stroke-width: 0; stroke-dasharray: none; stroke-linecap: butt; stroke-dashoffset: 0; stroke-linejoin: miter; stroke-miterlimit: 4; fill: rgb(255,255,255); fill-opacity: 0; fill-rule: nonzero; opacity: 1;"  paint-order="stroke"  x="-640" y="-512" rx="0" ry="0" width="1280" height="1024" />
</g>
<g transform="matrix(2.1212187973607057 0 0 2.1212187973607057 640.1899528445391 342.6604624836091)" id="logo-logo"  >
<g style=""  paint-order="stroke"   >
		<g transform="matrix(1.1307463363676806 0 0 -1.1307463363676806 -8.439801792822834 87.12639697081954)"  >
<linearGradient id="SVGID_11_1_1_1_1_212667" gradientUnits="userSpaceOnUse" gradientTransform="matrix(1 0 0 1 4090.836037739124 5837.42)"  x1="0" y1="0" x2="0" y2="77">
<stop offset="0%" style="stop-color:rgb(23,234,217);stop-opacity: 1"/>
<stop offset="100%" style="stop-color:rgb(96,120,234);stop-opacity: 1"/>
</linearGradient>
<path style="stroke: none; stroke-width: 1; stroke-dasharray: none; stroke-linecap: butt; stroke-dashoffset: 0; stroke-linejoin: miter; stroke-miterlimit: 4; fill: url(#SVGID_11_1_1_1_1_212667); fill-rule: nonzero; opacity: 1;"  paint-order="stroke"  transform=" translate(-4201.988018869562, -5875.7028848008495)" d="M 4313.14 5880.47 C 4302.64 5869.58 4290.200000000001 5860.360000000001 4276.31 5853.29 C 4256.47 5843.18 4233.68 5837.42 4209.450000000001 5837.42 C 4185.220000000001 5837.42 4162.43 5843.18 4142.590000000001 5853.29 C 4121.980000000001 5863.79 4104.530000000001 5879.0199999999995 4091.950000000001 5897.4 C 4090.3900000000012 5899.7 4090.510000000001 5902.66 4092.050000000001 5904.799999999999 C 4094.090000000001 5907.73 4109.3600000000015 5915.15 4126.830000000001 5913.829999999999 C 4126.830000000001 5913.829999999999 4115.090000000001 5910.859999999999 4107.200000000001 5898.379999999999 C 4118.070000000001 5884.589999999999 4132.14 5873.069999999999 4148.4400000000005 5864.7699999999995 C 4166.52 5855.5599999999995 4187.31 5850.32 4209.450000000001 5850.32 C 4231.590000000001 5850.32 4252.39 5855.5599999999995 4270.460000000001 5864.7699999999995 C 4278.140000000001 5868.69 4285.340000000001 5873.32 4291.930000000001 5878.5599999999995 C 4291.930000000001 5878.5599999999995 4301.510000000001 5877.65 4313.140000000001 5880.469999999999" stroke-linecap="round" />
</g>
		<g transform="matrix(1.1307463363676806 0 0 -1.1307463363676806 8.437607825286591 29.849308587378545)"  >
<linearGradient id="SVGID_11_1_1_1_1_212668" gradientUnits="userSpaceOnUse" gradientTransform="matrix(1 0 0 1 4105.759999999998 5888.074235596705)"  x1="0" y1="0" x2="0" y2="77">
<stop offset="0%" style="stop-color:rgb(23,234,217);stop-opacity: 1"/>
<stop offset="100%" style="stop-color:rgb(96,120,234);stop-opacity: 1"/>
</linearGradient>
<path style="stroke: none; stroke-width: 1; stroke-dasharray: none; stroke-linecap: butt; stroke-dashoffset: 0; stroke-linejoin: miter; stroke-miterlimit: 4; fill: url(#SVGID_11_1_1_1_1_212668); fill-rule: nonzero; opacity: 1;"  paint-order="stroke"  transform=" translate(-4216.913921413121, -5926.357117798352)" d="M 4105.76 5921.59 C 4116.26 5932.4800000000005 4128.7 5941.7 4142.59 5948.77 C 4162.43 5958.88 4185.22 5964.64 4209.45 5964.64 C 4217.19 5964.64 4224.79 5964.05 4232.19 5962.92 L 4232.19 5949.86 C 4224.82 5951.089999999999 4217.21 5951.74 4209.45 5951.74 C 4187.3099999999995 5951.74 4166.51 5946.5 4148.44 5937.29 C 4140.75 5933.38 4133.5599999999995 5928.75 4126.969999999999 5923.5 C 4126.969999999999 5923.5 4117.389999999999 5924.41 4105.759999999999 5921.59 z M 4261.25 5955.38 C 4266.43 5953.45 4271.46 5951.25 4276.31 5948.77 C 4296.92 5938.27 4314.360000000001 5923.040000000001 4326.950000000001 5904.660000000001 C 4328.52 5902.360000000001 4328.39 5899.400000000001 4326.85 5897.27 C 4324.8 5894.330000000001 4309.54 5886.910000000001 4292.070000000001 5888.2300000000005 C 4292.070000000001 5888.2300000000005 4303.8 5891.21 4311.700000000001 5903.6900000000005 C 4300.840000000001 5917.47 4286.750000000001 5928.990000000001 4270.460000000001 5937.290000000001 C 4267.460000000001 5938.820000000001 4264.390000000001 5940.2300000000005 4261.250000000001 5941.540000000001 L 4261.250000000001 5955.380000000001" stroke-linecap="round" />
</g>
		<g transform="matrix(1.1307463363676806 0 0 -1.1307463363676806 28.88461750034878 -11.477075314130985)"  >
<linearGradient id="SVGID_11_1_1_1_1_212669" gradientUnits="userSpaceOnUse" gradientTransform="matrix(1 0 0 1 4166.139999999999 5857.719999999998)"  x1="0" y1="0" x2="0" y2="77">
<stop offset="0%" style="stop-color:rgb(23,234,217);stop-opacity: 1"/>
<stop offset="100%" style="stop-color:rgb(96,120,234);stop-opacity: 1"/>
</linearGradient>
<path style="stroke: none; stroke-width: 1; stroke-dasharray: none; stroke-linecap: butt; stroke-dashoffset: 0; stroke-linejoin: miter; stroke-miterlimit: 4; fill: url(#SVGID_11_1_1_1_1_212669); fill-rule: evenodd; opacity: 1;"  paint-order="stroke"  transform=" translate(-4234.9966770387055, -5962.904999999999)" d="M 4240.53 5931.19 L 4240.53 6058.349999999999 C 4240.53 6063.709999999999 4244.91 6068.089999999999 4250.2699999999995 6068.089999999999 C 4251.089999999999 6068.089999999999 4251.929999999999 6068.069999999999 4252.759999999999 6068.039999999999 C 4267.429999999999 6033.599999999999 4337.099999999999 6008.639999999999 4284.489999999999 5968.349999999999 C 4326.799999999999 6013.23 4252.759999999999 6027.65 4252.759999999999 6027.65 L 4252.759999999999 5901.129999999999 L 4252.759999999999 5901.029999999999 C 4252.759999999999 5877.109999999999 4233.369999999999 5857.719999999998 4209.449999999999 5857.719999999998 C 4185.529999999999 5857.719999999998 4166.1399999999985 5877.109999999999 4166.1399999999985 5901.029999999999 C 4166.1399999999985 5924.949999999999 4185.529999999999 5944.339999999999 4209.449999999999 5944.339999999999 C 4221.6399999999985 5944.339999999999 4232.659999999999 5939.299999999999 4240.529999999999 5931.19" stroke-linecap="round" />
</g>
		<g transform="matrix(1.1307463363676806 0 0 -1.1307463363676806 0.0034597641458162798 58.48785424861657)"  >
<path style="stroke: none; stroke-width: 1; stroke-dasharray: none; stroke-linecap: butt; stroke-dashoffset: 0; stroke-linejoin: miter; stroke-miterlimit: 4; fill: rgb(251,244,152); fill-rule: evenodd; opacity: 1;"  paint-order="stroke"  transform=" translate(-4209.455, -5901.030000000001)" d="M 4209.45 5923.02 C 4221.599999999999 5923.02 4231.45 5913.18 4231.45 5901.030000000001 C 4231.45 5888.880000000001 4221.599999999999 5879.040000000001 4209.45 5879.040000000001 C 4197.3 5879.040000000001 4187.46 5888.880000000001 4187.46 5901.030000000001 C 4187.46 5913.18 4197.3 5923.02 4209.45 5923.02" stroke-linecap="round" />
</g>
		<g transform="matrix(1.1307463363676806 0 0 -1.1307463363676806 -0.002193967535788488 58.49350798030011)"  >
<linearGradient id="SVGID_11_1_1_1_1_212670" gradientUnits="userSpaceOnUse" gradientTransform="matrix(1 0 0 1 4194.389999999999 5885.959999999999)"  x1="0" y1="0" x2="0" y2="77">
<stop offset="0%" style="stop-color:rgb(23,234,217);stop-opacity: 1"/>
<stop offset="100%" style="stop-color:rgb(96,120,234);stop-opacity: 1"/>
</linearGradient>
<path style="stroke: none; stroke-width: 1; stroke-dasharray: none; stroke-linecap: butt; stroke-dashoffset: 0; stroke-linejoin: miter; stroke-miterlimit: 4; fill: url(#SVGID_11_1_1_1_1_212670); fill-rule: evenodd; opacity: 1;"  paint-order="stroke"  transform=" translate(-4209.45, -5901.025)" d="M 4209.45 5916.09 C 4217.7699999999995 5916.09 4224.51 5909.35 4224.51 5901.03 C 4224.51 5892.71 4217.77 5885.96 4209.45 5885.96 C 4201.13 5885.96 4194.389999999999 5892.71 4194.389999999999 5901.03 C 4194.389999999999 5909.349999999999 4201.129999999999 5916.09 4209.45 5916.09" stroke-linecap="round" />
</g>
		<g transform="matrix(1.1307463363676806 0 0 -1.1307463363676806 10.700320106184563 47.790993906579814)"  >
<path style="stroke: none; stroke-width: 1; stroke-dasharray: none; stroke-linecap: butt; stroke-dashoffset: 0; stroke-linejoin: miter; stroke-miterlimit: 4; fill: rgb(251,244,152); fill-rule: evenodd; opacity: 1;"  paint-order="stroke"  transform=" translate(-4218.915, -5910.49)" d="M 4218.91 5916.09 C 4222.01 5916.09 4224.51 5913.59 4224.51 5910.5 C 4224.51 5907.4 4222.01 5904.89 4218.91 5904.89 C 4215.82 5904.89 4213.32 5907.400000000001 4213.32 5910.5 C 4213.32 5913.59 4215.82 5916.09 4218.91 5916.09" stroke-linecap="round" />
</g>
</g>
</g>
<g transform="matrix(1.9211538461538462 0 0 1.9211538461538462 639.821321558288 770.2753843010534)" id="text-logo-path-group"  >
<g style=""  paint-order="stroke"   >
		<g transform="matrix(1 0 0 1 0 0)" id="text-logo-path-0"  >
<linearGradient id="SVGID_212671" gradientUnits="userSpaceOnUse" gradientTransform="matrix(1 0 0 1 2.0200000000000102 -104.53)"  x1="0" y1="0" x2="0" y2="162">
<stop offset="0%" style="stop-color:rgb(250,217,97);stop-opacity: 1"/>
<stop offset="100%" style="stop-color:rgb(247,107,28);stop-opacity: 1"/>
</linearGradient>
<path style="stroke: rgb(255,255,255); stroke-width: 4; stroke-dasharray: none; stroke-linecap: butt; stroke-dashoffset: 0; stroke-linejoin: miter; stroke-miterlimit: 4; fill: url(#SVGID_212671); fill-rule: nonzero; opacity: 1;"  paint-order="stroke"  transform=" translate(-137.51500000000001, 52.265)" d="M 2.02 0 L 46.64 -83.65 L 5.1 -83.65 L 5.1 -104.53 L 83.16 -104.53 L 38.47 -20.88 L 80.72 -20.88 L 80.72 0 L 2.02 0 Z M 85.26 0 L 127.64 -104.53 L 147.19 -104.53 L 189.64 0 L 164.85 0 L 157.03 -21.09 L 117.79 -21.09 L 109.97 0 L 85.26 0 Z M 124.78 -40.01 L 149.98 -40.01 L 137.34 -74.08 L 124.78 -40.01 Z M 200.74 0 L 200.74 -104.53 L 232.24 -104.53 Q 244.66 -104.53 252.41 -102.08 Q 260.17 -99.64 264.84 -94.75 L 264.84 -94.75 Q 273.01 -86.16 273.01 -70.45 L 273.01 -70.45 Q 273.01 -56 266.1 -47.97 L 266.1 -47.97 Q 261.42 -42.59 253.39 -39.97 Q 245.36 -37.36 232.24 -37.36 L 232.24 -37.36 L 223.79 -37.36 L 223.79 0 L 200.74 0 Z M 223.79 -57.05 L 229.93 -57.05 Q 234.33 -57.05 237.3 -57.29 Q 240.27 -57.54 243.02 -58.69 Q 245.78 -59.84 247.46 -62.28 L 247.46 -62.28 Q 249.97 -65.5 249.97 -70.87 L 249.97 -70.87 Q 249.97 -76.6 247.18 -79.95 L 247.18 -79.95 Q 245.36 -82.11 242.67 -83.09 Q 239.99 -84.07 237.16 -84.31 Q 234.33 -84.56 229.93 -84.56 L 229.93 -84.56 L 223.79 -84.56 L 223.79 -57.05 Z" stroke-linecap="round" />
</g>
</g>
</g>
<g transform="matrix(1.9211538461538462 0 0 1.9211538461538462 638.2429272097735 951.3783800094025)" id="tagline-2cb9334d-4618-4709-8fe9-b18c277bc416-logo-path-group"  >
<g style=""  paint-order="stroke"   >
		<g transform="matrix(1 0 0 1 0 0)" id="tagline-2cb9334d-4618-4709-8fe9-b18c277bc416-logo-path-0"  >
<path style="stroke: rgb(255,255,255); stroke-width: 0; stroke-dasharray: none; stroke-linecap: butt; stroke-dashoffset: 0; stroke-linejoin: miter; stroke-miterlimit: 4; fill: rgb(255,222,89); fill-rule: nonzero; opacity: 1;"  paint-order="stroke"  transform=" translate(-102.125, 13.785)" d="M 0.65 -1.52 L 0.65 -1.52 Q 0.65 -2.06 4.11 -6.36 L 4.11 -6.36 L 18.21 -24.57 L 2.09 -24.57 Q 0.65 -24.85 0.65 -25.99 L 0.65 -25.99 Q 0.95 -27.36 1.87 -27.36 L 1.87 -27.36 L 21.31 -27.36 Q 22.36 -27.36 22.6 -25.99 L 22.6 -25.99 L 22.6 -25.94 Q 22.6 -25.38 21.02 -23.54 L 21.02 -23.54 L 4.99 -2.82 L 21.23 -2.82 Q 22.6 -2.61 22.6 -1.45 L 22.6 -1.45 L 22.6 -1.37 Q 22.36 0 21.23 0 L 21.23 0 L 2.02 0 Q 0.88 0 0.65 -1.52 Z M 27.22 -1.37 L 27.22 -1.37 L 27.22 -1.45 Q 27.5 -2.84 28.46 -2.84 L 28.46 -2.84 L 28.89 -2.84 L 28.89 -24.68 L 28.59 -24.68 Q 27.39 -24.68 27.22 -26.2 L 27.22 -26.2 L 27.22 -26.28 Q 27.22 -27.17 28.59 -27.57 L 28.59 -27.57 L 28.95 -27.52 L 31.66 -27.52 L 31.94 -27.57 Q 33.39 -27.27 33.39 -26.13 L 33.39 -26.13 Q 33.14 -24.68 32.02 -24.68 L 32.02 -24.68 L 31.71 -24.68 L 31.71 -2.84 L 32.15 -2.84 Q 33.1 -2.84 33.39 -1.45 L 33.39 -1.45 L 33.39 -1.37 Q 33.14 0 32.02 0 L 32.02 0 L 28.59 0 Q 27.22 -0.25 27.22 -1.37 Z M 39.39 -1.43 L 39.39 -1.43 L 39.39 -25.88 Q 39.66 -27.31 40.76 -27.31 L 40.76 -27.31 L 40.82 -27.31 Q 42.19 -27.08 42.19 -26.01 L 42.19 -26.01 L 42.19 -13.58 Q 55.52 -26.89 55.64 -26.89 L 55.64 -26.89 L 56.15 -26.96 L 56.28 -26.96 Q 57.58 -26.72 57.58 -25.67 L 57.58 -25.67 L 57.58 -25.44 Q 57.58 -24.74 56.07 -23.5 L 56.07 -23.5 L 47.22 -14.59 L 57.37 -2.02 L 57.43 -1.58 L 57.43 -1.37 Q 57.43 -0.3 56.07 -0.08 L 56.07 -0.08 L 56 -0.08 Q 55.14 -0.08 53.62 -2.3 L 53.62 -2.3 L 45.14 -12.59 L 42.19 -9.56 L 42.19 -1.29 Q 42.19 -0.23 40.82 0 L 40.82 0 L 40.76 0 Q 39.66 0 39.39 -1.43 Z M 61.26 -1.35 L 61.26 -1.35 L 61.26 -1.43 L 63.7 -8.02 Q 70.08 -24.64 70.63 -26.47 L 70.63 -26.47 Q 71.28 -27.19 71.85 -27.19 L 71.85 -27.19 Q 73.16 -27.19 73.79 -24.55 L 73.79 -24.55 Q 82.44 -2.04 82.51 -1.5 L 82.51 -1.5 L 82.51 -1.29 Q 82.51 -0.23 81.16 0 L 81.16 0 L 81.08 0 Q 79.83 0 79.29 -2.44 L 79.29 -2.44 L 76.07 -10.8 L 67.7 -10.8 L 63.77 -0.44 Q 63.2 0 62.76 0 L 62.76 0 L 62.61 0 Q 61.26 -0.25 61.26 -1.35 Z M 71.85 -21.75 L 68.84 -13.6 L 74.99 -13.6 L 74.99 -13.67 L 71.92 -21.75 L 71.85 -21.75 Z M 86.69 -1.45 L 86.69 -1.45 L 86.69 -25.78 Q 86.86 -27.38 87.91 -27.38 L 87.91 -27.38 L 94.5 -27.38 Q 98.34 -27.38 101.07 -23.4 L 101.07 -23.4 Q 102.07 -21.37 102.07 -19.73 L 102.07 -19.73 L 102.07 -19.21 Q 102.07 -15.62 98.82 -13.01 L 98.82 -13.01 Q 96.61 -11.48 94.5 -11.48 L 94.5 -11.48 L 89.51 -11.48 L 89.51 -1.29 Q 89.51 -0.25 88.13 0 L 88.13 0 L 88.06 0 Q 86.95 0 86.69 -1.45 Z M 89.51 -24.57 L 89.51 -14.3 L 93.98 -14.3 Q 97.6 -14.3 98.97 -17.77 L 98.97 -17.77 Q 99.26 -18.49 99.26 -19.5 L 99.26 -19.5 Q 99.26 -22.68 96 -24.2 L 96 -24.2 Q 95.2 -24.57 94.13 -24.57 L 94.13 -24.57 L 89.51 -24.57 Z M 101.72 -1.35 L 101.72 -1.35 L 101.72 -1.43 L 104.16 -8.02 Q 110.54 -24.64 111.09 -26.47 L 111.09 -26.47 Q 111.73 -27.19 112.31 -27.19 L 112.31 -27.19 Q 113.62 -27.19 114.25 -24.55 L 114.25 -24.55 Q 122.89 -2.04 122.97 -1.5 L 122.97 -1.5 L 122.97 -1.29 Q 122.97 -0.23 121.62 0 L 121.62 0 L 121.54 0 Q 120.29 0 119.75 -2.44 L 119.75 -2.44 L 116.53 -10.8 L 108.15 -10.8 L 104.23 -0.44 Q 103.66 0 103.22 0 L 103.22 0 L 103.07 0 Q 101.72 -0.25 101.72 -1.35 Z M 112.31 -21.75 L 109.3 -13.6 L 115.45 -13.6 L 115.45 -13.67 L 112.38 -21.75 L 112.31 -21.75 Z M 126.99 -1.5 L 126.99 -1.5 L 126.99 -25.67 Q 127.17 -27.25 128.21 -27.25 L 128.21 -27.25 L 128.5 -27.25 Q 129.41 -27.25 130.08 -25.82 L 130.08 -25.82 Q 131.15 -24.62 145.71 -5.81 L 145.71 -5.81 Q 145.87 -5.81 145.87 -5.6 L 145.87 -5.6 L 145.92 -5.52 L 146 -5.52 L 146 -25.96 Q 146.25 -27.25 147.29 -27.25 L 147.29 -27.25 L 147.5 -27.25 Q 148.57 -27.25 148.8 -25.9 L 148.8 -25.9 L 148.8 -1.43 Q 148.8 -0.25 147.29 0 L 147.29 0 Q 146.48 0 144.78 -2.51 L 144.78 -2.51 L 129.79 -21.65 L 129.79 -1.37 Q 129.79 -0.3 128.42 -0.08 L 128.42 -0.08 L 128.37 -0.08 Q 127.26 -0.08 126.99 -1.5 Z M 153.3 -1.35 L 153.3 -1.35 L 153.3 -1.43 L 155.74 -8.02 Q 162.12 -24.64 162.67 -26.47 L 162.67 -26.47 Q 163.31 -27.19 163.89 -27.19 L 163.89 -27.19 Q 165.2 -27.19 165.83 -24.55 L 165.83 -24.55 Q 174.47 -2.04 174.55 -1.5 L 174.55 -1.5 L 174.55 -1.29 Q 174.55 -0.23 173.2 0 L 173.2 0 L 173.12 0 Q 171.87 0 171.33 -2.44 L 171.33 -2.44 L 168.11 -10.8 L 159.73 -10.8 L 155.81 -0.44 Q 155.24 0 154.8 0 L 154.8 0 L 154.65 0 Q 153.3 -0.25 153.3 -1.35 Z M 163.89 -21.75 L 160.88 -13.6 L 167.03 -13.6 L 167.03 -13.67 L 163.96 -21.75 L 163.89 -21.75 Z M 178.99 -1.45 L 178.99 -1.45 L 178.99 -25.69 Q 179.16 -27.27 180.21 -27.27 L 180.21 -27.27 L 180.5 -27.27 Q 181.62 -27.27 182.08 -25.4 L 182.08 -25.4 L 191.22 -4.97 Q 191.58 -5.39 197.62 -19.21 L 197.62 -19.21 L 201.16 -26.83 Q 201.58 -27.27 202.09 -27.27 L 202.09 -27.27 L 202.38 -27.27 Q 203.43 -27.27 203.6 -25.69 L 203.6 -25.69 L 203.6 -1.45 Q 203.33 0 202.23 0 L 202.23 0 L 202.15 0 Q 200.8 -0.23 200.8 -1.29 L 200.8 -1.29 L 200.8 -19.21 L 200.72 -19.21 Q 192.67 -0.93 192.38 -0.5 L 192.38 -0.5 Q 191.83 0 191.29 0 L 191.29 0 Q 190.04 0 189.07 -3.03 L 189.07 -3.03 L 181.87 -19.14 L 181.79 -19.14 L 181.79 -1.29 Q 181.79 -0.23 180.44 0 L 180.44 0 L 180.36 0 Q 179.26 0 178.99 -1.45 Z" stroke-linecap="round" />
</g>
</g>
</g>
</svg>